<svg xmlns="http://www.w3.org/2000/svg" version="1.1" xmlns:xlink="http://www.w3.org/1999/xlink" viewBox="0 0 200 200" width="200" height="200"><metadata><rdf:RDF xmlns:rdf="http://www.w3.org/1999/02/22-rdf-syntax-ns#" xmlns:dc="http://purl.org/dc/elements/1.1/"><rdf:Description><dc:creator>RealFaviconGenerator</dc:creator><dc:source>https://realfavicongenerator.net</dc:source></rdf:Description></rdf:RDF></metadata><rect width="200" height="200" fill="url('#gradient')"></rect><defs><linearGradient id="gradient" gradientTransform="rotate(144 0.5 0.5)"><stop offset="0%" stop-color="#0c35e8"></stop><stop offset="100%" stop-color="#403899"></stop></linearGradient></defs><g><g fill="#a2b2c2" transform="matrix(2.1521853355624554,0,0,2.1521853355624554,10.90304344694055,115.92851479363834)" stroke="#8e979d" stroke-width="0"><path d="M5.39-2.34L5.39-2.34Q6.08-2.34 6.46-2.72Q6.85-3.10 6.84-3.77L6.84-3.77L9.92-3.77Q9.92-2.03 8.68-0.92Q7.43 0.20 5.47 0.20L5.47 0.20Q3.16 0.20 1.84-1.25Q0.51-2.70 0.51-5.25L0.51-5.25L0.51-5.39Q0.51-6.99 1.10-8.22Q1.69-9.44 2.80-10.10Q3.92-10.76 5.44-10.76L5.44-10.76Q7.50-10.76 8.71-9.62Q9.92-8.48 9.92-6.52L9.92-6.52L6.84-6.52Q6.84-7.34 6.44-7.78Q6.04-8.22 5.36-8.22L5.36-8.22Q4.08-8.22 3.87-6.59L3.87-6.59Q3.80-6.07 3.80-5.17L3.80-5.17Q3.80-3.57 4.18-2.96Q4.56-2.34 5.39-2.34ZM10.91-4.82L10.90-5.38Q10.90-6.96 11.51-8.20Q12.13-9.43 13.28-10.10Q14.43-10.76 15.99-10.76L15.99-10.76Q18.36-10.76 19.73-9.29Q21.09-7.82 21.09-5.29L21.09-5.29L21.09-5.18Q21.09-2.71 19.72-1.25Q18.35 0.20 16.01 0.20L16.01 0.20Q13.75 0.20 12.38-1.16Q11.02-2.51 10.91-4.82L10.91-4.82ZM14.20-5.77L14.19-5.18Q14.19-3.71 14.65-3.03Q15.11-2.34 16.01-2.34L16.01-2.34Q17.76-2.34 17.80-5.05L17.80-5.05L17.80-5.38Q17.80-8.22 15.99-8.22L15.99-8.22Q14.34-8.22 14.20-5.77L14.20-5.77ZM22.13-5.36L22.13-5.36Q22.13-7.87 23.21-9.32Q24.30-10.76 26.24-10.76L26.24-10.76Q27.66-10.76 28.62-9.65L28.62-9.65L28.62-15L31.92-15L31.92 0L28.96 0L28.80-1.13Q27.78 0.20 26.22 0.20L26.22 0.20Q24.34 0.20 23.23-1.25Q22.13-2.70 22.13-5.36ZM25.43-5.76L25.42-5.16Q25.42-2.34 27.06-2.34L27.06-2.34Q28.15-2.34 28.62-3.26L28.62-3.26L28.62-7.29Q28.17-8.22 27.08-8.22L27.08-8.22Q25.56-8.22 25.43-5.76L25.43-5.76ZM38.91 0.20L38.91 0.20Q36.47 0.20 34.97-1.25Q33.47-2.71 33.47-5.03L33.47-5.03L33.47-5.30Q33.47-6.92 34.07-8.16Q34.67-9.40 35.82-10.08Q36.97-10.76 38.55-10.76L38.55-10.76Q40.78-10.76 42.07-9.38Q43.36-8.00 43.36-5.53L43.36-5.53L43.36-4.25L36.82-4.25Q36.99-3.36 37.59-2.85Q38.18-2.34 39.13-2.34L39.13-2.34Q40.69-2.34 41.57-3.44L41.57-3.44L43.08-1.66Q42.46-0.81 41.33-0.31Q40.21 0.20 38.91 0.20ZM38.54-8.22L38.54-8.22Q37.09-8.22 36.82-6.31L36.82-6.31L40.14-6.31L40.14-6.56Q40.16-7.35 39.74-7.79Q39.32-8.22 38.54-8.22ZM45.22-13.19L48.52-13.19L48.52-10.57L50.25-10.57L50.25-8.28L48.52-8.28L48.52-3.45Q48.52-2.85 48.73-2.62Q48.95-2.38 49.58-2.38L49.58-2.38Q50.07-2.38 50.40-2.44L50.40-2.44L50.40-0.09Q49.51 0.20 48.54 0.20L48.54 0.20Q46.85 0.20 46.04-0.61Q45.22-1.41 45.22-3.04L45.22-3.04L45.22-8.28L43.88-8.28L43.88-10.57L45.22-10.57L45.22-13.19ZM56.66 0.20L56.66 0.20Q54.23 0.20 52.72-1.25Q51.22-2.71 51.22-5.03L51.22-5.03L51.22-5.30Q51.22-6.92 51.82-8.16Q52.42-9.40 53.57-10.08Q54.73-10.76 56.31-10.76L56.31-10.76Q58.54-10.76 59.82-9.38Q61.11-8.00 61.11-5.53L61.11-5.53L61.11-4.25L54.57-4.25Q54.75-3.36 55.34-2.85Q55.94-2.34 56.88-2.34L56.88-2.34Q58.45-2.34 59.33-3.44L59.33-3.44L60.83-1.66Q60.21-0.81 59.09-0.31Q57.96 0.20 56.66 0.20ZM56.29-8.22L56.29-8.22Q54.84-8.22 54.57-6.31L54.57-6.31L57.89-6.31L57.89-6.56Q57.91-7.35 57.49-7.79Q57.07-8.22 56.29-8.22ZM66.90-2.34L66.90-2.34Q67.60-2.34 67.98-2.72Q68.36-3.10 68.35-3.77L68.35-3.77L71.44-3.77Q71.44-2.03 70.19-0.92Q68.95 0.20 66.98 0.20L66.98 0.20Q64.68 0.20 63.35-1.25Q62.02-2.70 62.02-5.25L62.02-5.25L62.02-5.39Q62.02-6.99 62.61-8.22Q63.20-9.44 64.32-10.10Q65.43-10.76 66.95-10.76L66.95-10.76Q69.01-10.76 70.22-9.62Q71.44-8.48 71.44-6.52L71.44-6.52L68.35-6.52Q68.35-7.34 67.95-7.78Q67.55-8.22 66.88-8.22L66.88-8.22Q65.60-8.22 65.38-6.59L65.38-6.59Q65.31-6.07 65.31-5.17L65.31-5.17Q65.31-3.57 65.69-2.96Q66.07-2.34 66.90-2.34ZM76.04-15L76.04-9.43Q77.10-10.76 78.74-10.76L78.74-10.76Q80.49-10.76 81.38-9.73Q82.27-8.69 82.29-6.67L82.29-6.67L82.29 0L78.98 0L78.98-6.59Q78.98-7.43 78.64-7.83Q78.30-8.22 77.48-8.22L77.48-8.22Q76.46-8.22 76.04-7.58L76.04-7.58L76.04 0L72.75 0L72.75-15L76.04-15Z"></path></g></g></svg>